<?xml version="1.0" encoding="utf-8" standalone="no"?>
<!-- Uploaded to: SVG Repo, www.svgrepo.com, Generator: SVG Repo Mixer Tools -->
<svg fill="#FFFFFF" xmlns="http://www.w3.org/2000/svg" width="800px" height="800px" viewBox="0 0 64 64">
    <g id="64px-Glyph" stroke="none" stroke-width="1" fill="none" fill-rule="evenodd">
        <g id="com-usb-stick" fill="#FFFFFF">
            <path d="M25.585,55.458 L25.595,55.458 L25.585,55.458 Z M17.021,60 C16.98,60 16.939,60 16.897,59.999 C13.349,59.967 10.037,58.543 7.571,55.99 C2.643,50.89 2.848,42.533 8.027,37.363 L27.678,17.685 C28.857,16.509 30.772,16.51 31.948,17.684 L46.228,31.935 C46.799,32.505 47.113,33.263 47.113,34.069 C47.113,34.875 46.799,35.633 46.228,36.202 L26.293,56.165 C26.292,56.165 26.292,56.165 26.291,56.166 C23.812,58.641 20.523,60 17.021,60 L17.021,60 Z" id="Fill-179">
            </path>
            <path d="M50.5684,20.5332 C50.1774,20.9262 49.5454,20.9242 49.1544,20.5352 L48.4324,19.8152 L46.9924,21.2522 L47.7114,21.9692 C48.1014,22.3602 48.1014,22.9932 47.7124,23.3852 C47.5164,23.5802 47.2594,23.6782 47.0044,23.6782 C46.7484,23.6782 46.4924,23.5802 46.2974,23.3862 L44.8694,21.9602 C44.6814,21.7712 44.5764,21.5172 44.5764,21.2522 C44.5764,20.9862 44.6814,20.7312 44.8704,20.5442 L47.7264,17.6942 C48.1174,17.3052 48.7484,17.3052 49.1384,17.6942 L50.5664,19.1192 C50.9584,19.5102 50.9584,20.1422 50.5684,20.5332 L50.5684,20.5332 Z M43.4264,17.6942 C43.8184,18.0852 43.8184,18.7182 43.4284,19.1082 C43.2334,19.3042 42.9764,19.4022 42.7204,19.4022 C42.4644,19.4022 42.2104,19.3042 42.0144,19.1102 L40.5864,17.6842 C40.3974,17.4972 40.2924,17.2422 40.2924,16.9762 C40.2924,16.7112 40.3974,16.4562 40.5864,16.2682 L43.4424,13.4182 C43.8334,13.0292 44.4644,13.0292 44.8554,13.4182 L46.2834,14.8442 C46.6734,15.2342 46.6734,15.8672 46.2844,16.2592 C45.8934,16.6492 45.2594,16.6482 44.8694,16.2602 L44.1484,15.5392 L42.7084,16.9762 L43.4264,17.6942 Z M57.7064,17.6942 L46.2824,6.2922 C45.8944,5.9042 45.2624,5.9032 44.8714,6.2902 L34.0904,16.9962 L46.9314,29.8112 L57.7054,19.1122 C57.8934,18.9252 58.0004,18.6702 58.0004,18.4032 C58.0004,18.1372 57.8944,17.8832 57.7064,17.6942 L57.7064,17.6942 Z" id="Fill-180">
            </path>
        </g>
    </g>
</svg>